<svg xmlns="http://www.w3.org/2000/svg" width="138" height="132" fill="none" viewBox="0 0 138 132">
    <path fill="#fff" d="M132.797.127c-2.38.452-5.761 2.012-11.608 5.358-17.11 9.79-32.25 23.852-43.416 40.313-5.61 8.274-10.186 17.02-13.837 26.467-1.464 3.798-3.305 9.575-4.34 13.642l-.117.463-.991-.85c-8.905-7.607-24.605-19.829-26.392-20.55-1.723-.699-4.857-.269-7.44 1.023-1.229.624-1.8 1-2.5 1.678-.667.645-.871 1.108-.656 1.55.086.182 1.066.989 2.563 2.108 5.6 4.164 9.325 7.047 13.89 10.716 6.3 5.067 11.242 9.274 18.823 16.03 1.324 1.173 1.658 1.345 2.972 1.474 2.336.237 6.643-1.13 8.42-2.69.603-.516.754-.806.905-1.742 2.132-12.868 5.674-23.928 11.317-35.343 4.2-8.489 8.743-15.59 14.752-23.067 8.043-10.006 17.067-18.268 27.619-25.305 3.36-2.248 6.44-4.024 11.404-6.606 1.776-.925 2.261-1.226 2.767-1.732C138.17 1.827 138.02.86 136.49.278c-.786-.302-2.53-.366-3.693-.151z"/>
</svg>